<svg xmlns="http://www.w3.org/2000/svg" xml:space="preserve" id="Infinity_Mark" x="0" y="0" version="1.1" viewBox="0 0 576 272">
  <style>
    .st2{fill:url(#SVGID_00000118367947368773679790000012863481893051175070_)}
  </style>
  <path fill="#29abe2" d="M473 226c-39.3 0-80.8-25.7-101.2-44.4-22.3-20.4-83.5-86.8-83.8-87.1C247.8 49.7 193.9 0 140 0 75.1 0 18.6 44.9 3.8 104.4 5 100.5 25.6 46 103 46c39.3 0 80.8 25.7 101.2 44.4 22.3 20.4 83.5 86.8 83.8 87.1 40.2 44.8 94.1 94.5 148 94.5 64.9 0 121.4-44.9 136.2-104.4-1.2 3.9-21.8 58.4-99.2 58.4z"/>
  <linearGradient id="SVGID_1_" x1="212.578" x2="23.135" y1="254.208" y2="58.034" gradientUnits="userSpaceOnUse">
    <stop offset=".22" stop-color="#ed1e79"/>
    <stop offset=".892" stop-color="#522785"/>
  </linearGradient>
  <path fill="url(#SVGID_1_)" d="M288 177.5c-.1-.2-17.8-19.3-37.5-40.1-10.7 12.7-26.1 30-43.8 45.5-33 28.9-54.4 35-66.7 35-46.3 0-84-36.7-84-81.8 0-44.8 37.7-81.5 84-81.8 1.7 0 3.7.2 6.2.6-13.9-5.4-28.7-8.9-43.2-8.9-77.4 0-98 54.5-99.2 58.4C1.3 114.6 0 125.1 0 136c0 75 61.9 136 139 136 32.2 0 68.2-16.5 105.3-49 17.5-15.4 32.7-31.8 44.2-45l-.5-.5z"/>
  <linearGradient id="SVGID_00000014614501688067392980000015562690474770664594_" x1="8260.416" x2="8070.973" y1="8619.375" y2="8423.201" gradientTransform="rotate(180 4311.858 4318.642)" gradientUnits="userSpaceOnUse">
    <stop offset=".21" stop-color="#f15a24"/>
    <stop offset=".684" stop-color="#fbb03b"/>
  </linearGradient>
  <path fill="url(#SVGID_00000014614501688067392980000015562690474770664594_)" d="M288 94.5c.1.2 17.8 19.3 37.5 40.1 10.7-12.7 26.1-30 43.8-45.5 33-28.9 54.4-35 66.7-35 46.3 0 84 36.7 84 81.8 0 44.8-37.7 81.5-84 81.8-1.7 0-3.7-.2-6.2-.6 13.9 5.3 28.7 8.8 43.2 8.8 77.4 0 98-54.5 99.2-58.4 2.5-10.1 3.8-20.7 3.8-31.6C576 61 513.1 0 436 0c-32.2 0-67.2 16.5-104.3 49-17.5 15.4-32.7 31.8-44.2 45l.5.5z"/>
</svg>
